<?xml version="1.0" encoding="UTF-8"?>
<svg xmlns="http://www.w3.org/2000/svg" xmlns:xlink="http://www.w3.org/1999/xlink" width="33pt" height="33pt" viewBox="0 0 33 33" version="1.1">
<g id="surface1">
<path style=" stroke:none;fill-rule:nonzero;fill:rgb(84.705882%,0%,15.294118%);fill-opacity:1;" d="M 13.75 4.582031 L 16.5 4.582031 L 16.5 9.167969 L 13.75 9.167969 Z M 13.75 4.582031 "/>
<path style=" stroke:none;fill-rule:nonzero;fill:rgb(89.411765%,94.509804%,98.431373%);fill-opacity:1;" d="M 0 7.332031 L 19.25 7.332031 L 19.25 24.75 L 0 24.75 Z M 0 7.332031 "/>
<path style=" stroke:none;fill-rule:nonzero;fill:rgb(78.823529%,89.019608%,96.862745%);fill-opacity:1;" d="M 29.332031 14.667969 L 26.582031 7.332031 L 16.5 7.332031 L 16.5 24.75 L 33 24.75 L 33 16.5 Z M 29.332031 14.667969 "/>
<path style=" stroke:none;fill-rule:nonzero;fill:rgb(23.529412%,36.470588%,46.27451%);fill-opacity:1;" d="M 26.394531 14.667969 L 24.675781 10.082031 L 19.25 10.082031 L 19.25 14.667969 Z M 26.394531 14.667969 "/>
<path style=" stroke:none;fill-rule:nonzero;fill:rgb(78.823529%,89.019608%,96.862745%);fill-opacity:1;" d="M 0 22 L 33 22 L 33 24.75 L 0 24.75 Z M 0 22 "/>
<path style=" stroke:none;fill-rule:nonzero;fill:rgb(63.529412%,0%,11.372549%);fill-opacity:1;" d="M 30.25 19.25 L 33 19.25 L 33 22.917969 L 30.25 22.917969 Z M 30.25 19.25 "/>
<path style=" stroke:none;fill-rule:nonzero;fill:rgb(57.647059%,78.039216%,93.72549%);fill-opacity:1;" d="M 16.5 22 L 33 22 L 33 24.75 L 16.5 24.75 Z M 16.5 22 "/>
<path style=" stroke:none;fill-rule:nonzero;fill:rgb(11.764706%,18.039216%,23.137255%);fill-opacity:1;" d="M 28.417969 24.75 C 28.417969 26.773438 26.773438 28.417969 24.75 28.417969 C 22.726562 28.417969 21.082031 26.773438 21.082031 24.75 C 21.082031 22.726562 22.726562 21.082031 24.75 21.082031 C 26.773438 21.082031 28.417969 22.726562 28.417969 24.75 Z M 28.417969 24.75 "/>
<path style=" stroke:none;fill-rule:nonzero;fill:rgb(11.764706%,18.039216%,23.137255%);fill-opacity:1;" d="M 11 24.75 C 11 26.773438 9.359375 28.417969 7.332031 28.417969 C 5.308594 28.417969 3.667969 26.773438 3.667969 24.75 C 3.667969 22.726562 5.308594 21.082031 7.332031 21.082031 C 9.359375 21.082031 11 22.726562 11 24.75 Z M 11 24.75 "/>
<path style=" stroke:none;fill-rule:nonzero;fill:rgb(47.058824%,72.54902%,92.156863%);fill-opacity:1;" d="M 9.167969 24.75 C 9.167969 25.761719 8.347656 26.582031 7.332031 26.582031 C 6.320312 26.582031 5.5 25.761719 5.5 24.75 C 5.5 23.738281 6.320312 22.917969 7.332031 22.917969 C 8.347656 22.917969 9.167969 23.738281 9.167969 24.75 Z M 9.167969 24.75 "/>
<path style=" stroke:none;fill-rule:nonzero;fill:rgb(35.294118%,54.509804%,69.019608%);fill-opacity:1;" d="M 26.582031 24.75 C 26.582031 25.761719 25.761719 26.582031 24.75 26.582031 C 23.738281 26.582031 22.917969 25.761719 22.917969 24.75 C 22.917969 23.738281 23.738281 22.917969 24.75 22.917969 C 25.761719 22.917969 26.582031 23.738281 26.582031 24.75 Z M 26.582031 24.75 "/>
<path style=" stroke:none;fill-rule:nonzero;fill:rgb(84.705882%,0%,15.294118%);fill-opacity:1;" d="M 11.917969 12.832031 L 9.167969 12.832031 L 9.167969 10.082031 L 5.5 10.082031 L 5.5 12.832031 L 2.75 12.832031 L 2.75 16.5 L 5.5 16.5 L 5.5 19.25 L 9.167969 19.25 L 9.167969 16.5 L 11.917969 16.5 Z M 11.917969 12.832031 "/>
</g>
</svg>
