<?xml version="1.0" encoding="UTF-8"?>
<svg xmlns="http://www.w3.org/2000/svg" xmlns:xlink="http://www.w3.org/1999/xlink" width="33pt" height="33pt" viewBox="0 0 33 33" version="1.1">
<g id="surface1">
<path style=" stroke:none;fill-rule:nonzero;fill:rgb(100%,96.078431%,61.568627%);fill-opacity:1;" d="M 30.25 15.125 C 30.25 22.71875 24.09375 28.875 16.5 28.875 C 8.90625 28.875 2.75 22.71875 2.75 15.125 C 2.75 7.53125 8.90625 1.375 16.5 1.375 C 24.09375 1.375 30.25 7.53125 30.25 15.125 Z M 30.25 15.125 "/>
<path style=" stroke:none;fill-rule:nonzero;fill:rgb(98.431373%,75.294118%,17.647059%);fill-opacity:1;" d="M 25.4375 15.125 C 25.4375 9.832031 20.898438 5.636719 15.46875 6.257812 C 11.34375 6.738281 8.042969 10.039062 7.632812 14.164062 C 7.289062 17.324219 8.59375 20.144531 10.792969 21.929688 C 11.757812 22.757812 12.375 23.925781 12.375 25.230469 L 12.375 25.4375 L 20.625 25.4375 L 20.625 25.367188 C 20.625 24.132812 21.175781 22.894531 22.136719 22.070312 C 24.132812 20.417969 25.4375 17.945312 25.4375 15.125 Z M 25.4375 15.125 "/>
<path style=" stroke:none;fill-rule:nonzero;fill:rgb(100%,96.078431%,61.568627%);fill-opacity:1;" d="M 21.039062 13.886719 L 18.976562 12.511719 C 18.769531 12.375 18.425781 12.375 18.21875 12.511719 L 16.5 13.613281 L 14.851562 12.511719 C 14.644531 12.375 14.300781 12.375 14.09375 12.511719 L 12.03125 13.886719 C 11.894531 14.023438 11.757812 14.164062 11.757812 14.367188 C 11.757812 14.574219 11.757812 14.78125 11.894531 14.917969 L 14.507812 18.148438 L 14.507812 25.4375 L 15.882812 25.4375 L 15.882812 17.875 C 15.882812 17.738281 15.8125 17.601562 15.742188 17.460938 L 13.476562 14.644531 L 14.507812 13.957031 L 16.15625 15.054688 C 16.363281 15.195312 16.707031 15.195312 16.914062 15.054688 L 18.5625 13.957031 L 19.59375 14.644531 L 17.324219 17.460938 C 17.257812 17.601562 17.1875 17.738281 17.1875 17.875 L 17.1875 25.4375 L 18.5625 25.4375 L 18.5625 18.148438 L 21.175781 14.917969 C 21.3125 14.78125 21.382812 14.574219 21.3125 14.367188 C 21.242188 14.164062 21.175781 13.957031 21.039062 13.886719 Z M 21.039062 13.886719 "/>
<path style=" stroke:none;fill-rule:nonzero;fill:rgb(36.078431%,41.960784%,75.294118%);fill-opacity:1;" d="M 18.5625 30.25 C 18.5625 31.390625 17.640625 32.3125 16.5 32.3125 C 15.359375 32.3125 14.4375 31.390625 14.4375 30.25 C 14.4375 29.109375 15.359375 28.1875 16.5 28.1875 C 17.640625 28.1875 18.5625 29.109375 18.5625 30.25 Z M 18.5625 30.25 "/>
<path style=" stroke:none;fill-rule:nonzero;fill:rgb(62.352941%,65.882353%,85.490196%);fill-opacity:1;" d="M 17.875 30.9375 L 15.125 30.9375 C 13.613281 30.9375 12.375 29.699219 12.375 28.1875 L 12.375 24.75 L 20.625 24.75 L 20.625 28.1875 C 20.625 29.699219 19.386719 30.9375 17.875 30.9375 Z M 17.875 30.9375 "/>
<path style=" stroke:none;fill-rule:nonzero;fill:rgb(36.078431%,41.960784%,75.294118%);fill-opacity:1;" d="M 20.625 28.1875 L 12.648438 29.289062 C 12.855469 29.769531 13.269531 30.25 13.75 30.523438 L 20.210938 29.632812 C 20.488281 29.21875 20.625 28.738281 20.625 28.1875 Z M 20.625 28.1875 "/>
<path style=" stroke:none;fill-rule:nonzero;fill:rgb(36.078431%,41.960784%,75.294118%);fill-opacity:1;" d="M 12.375 26.605469 L 12.375 27.980469 L 20.625 26.8125 L 20.625 25.4375 Z M 12.375 26.605469 "/>
</g>
</svg>
