<?xml version="1.0" encoding="UTF-8"?>
<svg xmlns="http://www.w3.org/2000/svg" xmlns:xlink="http://www.w3.org/1999/xlink" width="33pt" height="33pt" viewBox="0 0 33 33" version="1.1">
<g id="surface1">
<path style=" stroke:none;fill-rule:nonzero;fill:rgb(74.901961%,21.176471%,4.705882%);fill-opacity:1;" d="M 8.9375 20.625 L 24.0625 20.625 L 24.0625 28.875 L 8.9375 28.875 Z M 8.9375 20.625 "/>
<path style=" stroke:none;fill-rule:nonzero;fill:rgb(100%,65.490196%,14.901961%);fill-opacity:1;" d="M 9.625 17.875 C 9.625 19.394531 8.394531 20.625 6.875 20.625 C 5.355469 20.625 4.125 19.394531 4.125 17.875 C 4.125 16.355469 5.355469 15.125 6.875 15.125 C 8.394531 15.125 9.625 16.355469 9.625 17.875 Z M 9.625 17.875 "/>
<path style=" stroke:none;fill-rule:nonzero;fill:rgb(100%,65.490196%,14.901961%);fill-opacity:1;" d="M 28.875 17.875 C 28.875 19.394531 27.644531 20.625 26.125 20.625 C 24.605469 20.625 23.375 19.394531 23.375 17.875 C 23.375 16.355469 24.605469 15.125 26.125 15.125 C 27.644531 15.125 28.875 16.355469 28.875 17.875 Z M 28.875 17.875 "/>
<path style=" stroke:none;fill-rule:nonzero;fill:rgb(100%,71.764706%,30.196078%);fill-opacity:1;" d="M 26.8125 13.0625 C 26.8125 4.332031 6.1875 7.355469 6.1875 13.0625 C 6.1875 14.300781 6.1875 18.699219 6.1875 19.9375 C 6.1875 25.644531 10.792969 30.25 16.5 30.25 C 22.207031 30.25 26.8125 25.644531 26.8125 19.9375 C 26.8125 18.699219 26.8125 14.300781 26.8125 13.0625 Z M 26.8125 13.0625 "/>
<path style=" stroke:none;fill-rule:nonzero;fill:rgb(47.058824%,27.843137%,9.803922%);fill-opacity:1;" d="M 22 17.875 C 22 18.632812 21.382812 19.25 20.625 19.25 C 19.867188 19.25 19.25 18.632812 19.25 17.875 C 19.25 17.117188 19.867188 16.5 20.625 16.5 C 21.382812 16.5 22 17.117188 22 17.875 Z M 22 17.875 "/>
<path style=" stroke:none;fill-rule:nonzero;fill:rgb(47.058824%,27.843137%,9.803922%);fill-opacity:1;" d="M 13.75 17.875 C 13.75 18.632812 13.132812 19.25 12.375 19.25 C 11.617188 19.25 11 18.632812 11 17.875 C 11 17.117188 11.617188 16.5 12.375 16.5 C 13.132812 16.5 13.75 17.117188 13.75 17.875 Z M 13.75 17.875 "/>
<path style=" stroke:none;fill-rule:nonzero;fill:rgb(100%,34.117647%,13.333333%);fill-opacity:1;" d="M 16.5 1.375 C 10.65625 1.375 2.0625 5.363281 2.0625 24.476562 L 8.9375 28.875 L 8.9375 16.5 L 20.488281 9.761719 L 24.0625 14.4375 L 24.0625 28.875 L 30.9375 23.238281 C 30.9375 19.386719 30.320312 3.300781 20.351562 3.300781 L 19.386719 1.375 Z M 16.5 1.375 "/>
<path style=" stroke:none;fill-rule:nonzero;fill:rgb(45.882353%,45.882353%,45.882353%);fill-opacity:1;" d="M 30.9375 16.5 C 30.523438 16.5 30.25 16.773438 30.25 17.1875 L 30.25 12.375 C 30.25 6.324219 25.300781 1.375 19.25 1.375 L 13.0625 1.375 C 12.648438 1.375 12.375 1.648438 12.375 2.0625 C 12.375 2.476562 12.648438 2.75 13.0625 2.75 L 19.25 2.75 C 24.542969 2.75 28.875 7.082031 28.875 12.375 L 28.875 19.25 C 28.875 19.664062 29.148438 19.9375 29.5625 19.9375 C 29.976562 19.9375 30.25 19.664062 30.25 19.25 L 30.25 20.625 C 30.25 23.304688 28.117188 25.4375 25.4375 25.4375 L 16.5 25.4375 C 16.085938 25.4375 15.8125 25.710938 15.8125 26.125 C 15.8125 26.539062 16.085938 26.8125 16.5 26.8125 L 25.4375 26.8125 C 28.875 26.8125 31.625 24.0625 31.625 20.625 L 31.625 17.1875 C 31.625 16.773438 31.351562 16.5 30.9375 16.5 Z M 30.9375 16.5 "/>
<path style=" stroke:none;fill-rule:nonzero;fill:rgb(21.568627%,27.843137%,30.980392%);fill-opacity:1;" d="M 30.9375 15.125 L 30.25 15.125 C 29.492188 15.125 28.875 15.742188 28.875 16.5 L 28.875 19.25 C 28.875 20.007812 29.492188 20.625 30.25 20.625 L 30.9375 20.625 C 31.695312 20.625 32.3125 20.007812 32.3125 19.25 L 32.3125 16.5 C 32.3125 15.742188 31.695312 15.125 30.9375 15.125 Z M 30.9375 15.125 "/>
<path style=" stroke:none;fill-rule:nonzero;fill:rgb(21.568627%,27.843137%,30.980392%);fill-opacity:1;" d="M 17.875 26.125 C 17.875 26.882812 17.257812 27.5 16.5 27.5 C 15.742188 27.5 15.125 26.882812 15.125 26.125 C 15.125 25.367188 15.742188 24.75 16.5 24.75 C 17.257812 24.75 17.875 25.367188 17.875 26.125 Z M 17.875 26.125 "/>
</g>
</svg>
