<?xml version="1.0" encoding="UTF-8"?>
<svg xmlns="http://www.w3.org/2000/svg" xmlns:xlink="http://www.w3.org/1999/xlink" width="33pt" height="33pt" viewBox="0 0 33 33" version="1.1">
<g id="surface1">
<path style=" stroke:none;fill-rule:nonzero;fill:rgb(25.882353%,25.882353%,25.882353%);fill-opacity:1;" d="M 6.1875 7.5625 L 26.8125 7.5625 L 26.8125 9.625 L 6.1875 9.625 Z M 6.1875 7.5625 "/>
<path style=" stroke:none;fill-rule:nonzero;fill:rgb(38.039216%,38.039216%,38.039216%);fill-opacity:1;" d="M 2.75 17.1875 L 30.25 17.1875 L 30.25 12.375 C 30.25 10.863281 29.011719 9.625 27.5 9.625 L 5.5 9.625 C 3.988281 9.625 2.75 10.863281 2.75 12.375 Z M 2.75 17.1875 "/>
<path style=" stroke:none;fill-rule:nonzero;fill:rgb(25.882353%,25.882353%,25.882353%);fill-opacity:1;" d="M 5.5 24.75 L 27.5 24.75 C 29.011719 24.75 30.25 23.511719 30.25 22 L 30.25 16.5 L 2.75 16.5 L 2.75 22 C 2.75 23.511719 3.988281 24.75 5.5 24.75 Z M 5.5 24.75 "/>
<path style=" stroke:none;fill-rule:nonzero;fill:rgb(0%,90.196078%,46.27451%);fill-opacity:1;" d="M 28.1875 12.375 C 28.1875 12.753906 27.878906 13.0625 27.5 13.0625 C 27.121094 13.0625 26.8125 12.753906 26.8125 12.375 C 26.8125 11.996094 27.121094 11.6875 27.5 11.6875 C 27.878906 11.6875 28.1875 11.996094 28.1875 12.375 Z M 28.1875 12.375 "/>
<path style=" stroke:none;fill-rule:nonzero;fill:rgb(56.470588%,79.215686%,97.647059%);fill-opacity:1;" d="M 7.5625 2.75 L 25.4375 2.75 L 25.4375 9.625 L 7.5625 9.625 Z M 7.5625 2.75 "/>
<path style=" stroke:none;fill-rule:nonzero;fill:rgb(14.117647%,14.117647%,14.117647%);fill-opacity:1;" d="M 25.78125 21.3125 L 7.21875 21.3125 C 6.667969 21.3125 6.1875 20.832031 6.1875 20.28125 C 6.1875 19.730469 6.667969 19.25 7.21875 19.25 L 25.78125 19.25 C 26.332031 19.25 26.8125 19.730469 26.8125 20.28125 C 26.8125 20.832031 26.332031 21.3125 25.78125 21.3125 Z M 25.78125 21.3125 "/>
<path style=" stroke:none;fill-rule:nonzero;fill:rgb(56.470588%,79.215686%,97.647059%);fill-opacity:1;" d="M 7.5625 21.3125 L 25.4375 21.3125 L 25.4375 28.875 L 7.5625 28.875 Z M 7.5625 21.3125 "/>
<path style=" stroke:none;fill-rule:nonzero;fill:rgb(25.882353%,64.705882%,96.078431%);fill-opacity:1;" d="M 7.5625 19.9375 L 25.4375 19.9375 L 25.4375 21.3125 L 7.5625 21.3125 Z M 7.5625 19.9375 "/>
<path style=" stroke:none;fill-rule:nonzero;fill:rgb(9.803922%,46.27451%,82.352941%);fill-opacity:1;" d="M 11 22.6875 L 22.6875 22.6875 L 22.6875 24.0625 L 11 24.0625 Z M 11 22.6875 "/>
<path style=" stroke:none;fill-rule:nonzero;fill:rgb(9.803922%,46.27451%,82.352941%);fill-opacity:1;" d="M 11 25.4375 L 19.9375 25.4375 L 19.9375 26.8125 L 11 26.8125 Z M 11 25.4375 "/>
</g>
</svg>
