<?xml version="1.0" encoding="UTF-8"?>
<svg xmlns="http://www.w3.org/2000/svg" xmlns:xlink="http://www.w3.org/1999/xlink" width="43pt" height="11pt" viewBox="0 0 43 11" version="1.1">
<g id="surface1">
<path style=" stroke:none;fill-rule:evenodd;fill:rgb(100%,100%,100%);fill-opacity:1;" d="M 8.980469 8.460938 L 8.980469 5.25 C 8.992188 4.875 8.960938 4.503906 8.894531 4.132812 C 8.847656 3.917969 8.75 3.710938 8.617188 3.535156 C 8.460938 3.320312 8.253906 3.152344 8.015625 3.046875 C 7.75 2.933594 7.460938 2.875 7.171875 2.882812 C 6.804688 2.875 6.441406 2.960938 6.117188 3.132812 C 5.800781 3.316406 5.539062 3.582031 5.355469 3.898438 C 5.253906 3.582031 5.042969 3.3125 4.761719 3.140625 C 4.4375 2.957031 4.066406 2.871094 3.695312 2.886719 C 3.335938 2.875 2.980469 2.96875 2.667969 3.15625 C 2.347656 3.367188 2.082031 3.65625 1.898438 3.996094 L 1.898438 3.054688 L 0.0507812 3.054688 L 0.0507812 8.460938 L 1.878906 8.460938 L 1.878906 6.167969 C 1.835938 5.652344 1.90625 5.128906 2.085938 4.640625 C 2.246094 4.386719 2.53125 4.242188 2.828125 4.273438 C 3.058594 4.25 3.285156 4.347656 3.421875 4.535156 C 3.558594 4.839844 3.617188 5.175781 3.589844 5.507812 L 3.589844 8.460938 L 5.40625 8.460938 L 5.40625 6.167969 C 5.367188 5.652344 5.4375 5.132812 5.613281 4.648438 C 5.765625 4.390625 6.050781 4.246094 6.347656 4.273438 C 6.578125 4.25 6.804688 4.351562 6.941406 4.542969 C 7.082031 4.84375 7.140625 5.179688 7.113281 5.511719 L 7.113281 8.460938 Z M 11.847656 10.851562 L 15.203125 3.054688 L 13.1875 3.054688 L 12.433594 5.007812 C 12.371094 5.171875 12.316406 5.324219 12.277344 5.460938 C 12.238281 5.589844 12.207031 5.722656 12.183594 5.859375 C 12.160156 5.726562 12.128906 5.59375 12.089844 5.464844 C 12.046875 5.324219 11.996094 5.171875 11.929688 5.007812 L 11.1875 3.054688 L 9.101562 3.054688 L 11.25 7.636719 L 9.75 10.851562 Z M 18.882812 8.460938 L 18.882812 2.476562 L 20.617188 2.476562 L 20.617188 0.621094 L 15.042969 0.621094 L 15.042969 2.476562 L 16.777344 2.476562 L 16.777344 8.460938 Z M 24.097656 6.75 C 23.589844 7.234375 22.792969 7.234375 22.285156 6.75 C 22.050781 6.472656 21.933594 6.117188 21.953125 5.753906 C 21.929688 5.386719 22.050781 5.027344 22.28125 4.75 C 22.789062 4.257812 23.589844 4.257812 24.097656 4.75 C 24.332031 5.027344 24.449219 5.386719 24.429688 5.753906 C 24.449219 6.113281 24.332031 6.472656 24.097656 6.75 Z M 24.347656 3.054688 L 24.347656 3.941406 C 24.167969 3.613281 23.910156 3.339844 23.597656 3.140625 C 23.28125 2.960938 22.921875 2.871094 22.558594 2.882812 C 21.875 2.851562 21.214844 3.136719 20.761719 3.660156 C 20.292969 4.253906 20.054688 5.003906 20.09375 5.761719 C 20.054688 6.523438 20.28125 7.273438 20.734375 7.878906 C 21.148438 8.402344 21.78125 8.695312 22.441406 8.671875 C 22.816406 8.679688 23.191406 8.589844 23.523438 8.40625 C 23.863281 8.203125 24.148438 7.921875 24.355469 7.582031 L 24.355469 8.460938 L 26.085938 8.460938 L 26.085938 3.054688 Z M 29.175781 8.460938 L 29.175781 0.160156 L 27.289062 0.160156 L 27.289062 8.460938 Z M 33.832031 6.722656 C 33.613281 6.945312 33.320312 7.070312 33.011719 7.070312 C 32.707031 7.070312 32.410156 6.945312 32.195312 6.722656 C 31.984375 6.453125 31.878906 6.117188 31.898438 5.773438 C 31.878906 5.429688 31.988281 5.089844 32.199219 4.820312 C 32.414062 4.597656 32.707031 4.472656 33.011719 4.472656 C 33.320312 4.472656 33.613281 4.597656 33.828125 4.820312 C 34.039062 5.089844 34.148438 5.429688 34.128906 5.773438 C 34.148438 6.117188 34.042969 6.453125 33.832031 6.722656 Z M 35.777344 4.660156 C 35.464844 3.941406 34.886719 3.378906 34.167969 3.089844 C 33.421875 2.8125 32.605469 2.8125 31.859375 3.089844 C 30.757812 3.511719 30.035156 4.582031 30.039062 5.773438 C 30.039062 6.15625 30.113281 6.539062 30.261719 6.890625 C 30.410156 7.242188 30.628906 7.5625 30.90625 7.824219 C 31.179688 8.097656 31.507812 8.3125 31.867188 8.457031 C 32.601562 8.742188 33.417969 8.742188 34.15625 8.457031 C 34.515625 8.3125 34.84375 8.097656 35.125 7.824219 C 35.402344 7.558594 35.625 7.238281 35.777344 6.882812 C 35.925781 6.53125 36.003906 6.15625 36 5.773438 C 36.003906 5.390625 35.925781 5.011719 35.777344 4.660156 Z M 38.671875 8.460938 L 38.671875 6.058594 L 40.683594 8.460938 L 43.164062 8.460938 L 40.546875 5.65625 L 42.945312 3.054688 L 40.613281 3.054688 L 38.671875 5.414062 L 38.671875 0.160156 L 36.820312 0.160156 L 36.820312 8.460938 Z M 38.671875 8.460938 "/>
</g>
</svg>
